<svg width="51" height="64" viewBox="0 0 51 64" fill="none" xmlns="http://www.w3.org/2000/svg">
<path d="M35.8594 30.2812C36.4934 30.2812 37.1015 30.5331 37.5498 30.9814C37.9981 31.4298 38.25 32.0378 38.25 32.6719C38.25 33.3059 37.9981 33.914 37.5498 34.3623C37.1015 34.8106 36.4934 35.0625 35.8594 35.0625H15.1406C14.5066 35.0625 13.8985 34.8106 13.4502 34.3623C13.0019 33.914 12.75 33.3059 12.75 32.6719C12.75 32.0378 13.0019 31.4298 13.4502 30.9814C13.8985 30.5331 14.5066 30.2812 15.1406 30.2812H35.8594ZM35.8594 39.0469C36.4934 39.0469 37.1015 39.2987 37.5498 39.7471C37.9981 40.1954 38.25 40.8035 38.25 41.4375C38.25 42.0715 37.9981 42.6796 37.5498 43.1279C37.1015 43.5763 36.4934 43.8281 35.8594 43.8281H15.1406C14.5066 43.8281 13.8985 43.5763 13.4502 43.1279C13.0019 42.6796 12.75 42.0715 12.75 41.4375C12.75 40.8035 13.0019 40.1954 13.4502 39.7471C13.8985 39.2987 14.5066 39.0469 15.1406 39.0469H35.8594ZM35.8594 47.8125C36.4934 47.8125 37.1015 48.0644 37.5498 48.5127C37.9981 48.961 38.25 49.5691 38.25 50.2031C38.25 50.8372 37.9981 51.4452 37.5498 51.8936C37.1015 52.3419 36.4934 52.5938 35.8594 52.5938H15.1406C14.5066 52.5938 13.8985 52.3419 13.4502 51.8936C13.0019 51.4452 12.75 50.8372 12.75 50.2031C12.75 49.5691 13.0019 48.961 13.4502 48.5127C13.8985 48.0644 14.5066 47.8125 15.1406 47.8125H35.8594ZM20.4478 1.86787L1.86788 20.4446C0.672249 21.6399 0.000361063 23.2611 0 24.9518V57.375C0 59.0658 0.671651 60.6873 1.8672 61.8828C3.06274 63.0783 4.68424 63.75 6.375 63.75H44.625C46.3158 63.75 47.9373 63.0783 49.1328 61.8828C50.3284 60.6873 51 59.0658 51 57.375V6.375C51 4.68424 50.3284 3.06274 49.1328 1.86719C47.9373 0.67165 46.3158 0 44.625 0H24.9518C24.8625 0 24.7764 0.0127499 24.6904 0.0223124C24.6266 0.0318749 24.5629 0.0414373 24.5023 0.0446248C23.817 0.0924373 23.1412 0.223125 22.5133 0.4845C22.3316 0.561 22.1563 0.663 21.9842 0.761813L21.8248 0.85425L21.675 0.93075C21.5857 0.97135 21.4995 1.01822 21.4168 1.071C21.1682 1.23994 20.9451 1.44075 20.7188 1.64475C20.6817 1.67804 20.6434 1.70993 20.604 1.74038C20.5493 1.77947 20.4971 1.82206 20.4478 1.86787V1.86787ZM6.375 58.9688C5.95231 58.9688 5.54693 58.8008 5.24805 58.502C4.94916 58.2031 4.78125 57.7977 4.78125 57.375V25.5H19.125C20.8158 25.5 22.4373 24.8283 23.6328 23.6328C24.8283 22.4373 25.5 20.8158 25.5 19.125V4.78125H44.625C45.0477 4.78125 45.4531 4.94916 45.752 5.24805C46.0508 5.54693 46.2188 5.95231 46.2188 6.375V57.375C46.2188 57.7977 46.0508 58.2031 45.752 58.502C45.4531 58.8008 45.0477 58.9688 44.625 58.9688H6.375ZM8.35762 20.7188L20.7188 8.35444V19.125C20.7188 19.5477 20.5508 19.9531 20.252 20.252C19.9531 20.5508 19.5477 20.7188 19.125 20.7188H8.35762Z" fill="white"/>
</svg>
