<svg width="20" height="20" viewBox="0 0 20 20" fill="none" xmlns="http://www.w3.org/2000/svg">
<path fill-rule="evenodd" clip-rule="evenodd" d="M10 1.5C5.313 1.5 1.5 5.313 1.5 10C1.5 14.687 5.313 18.5 10 18.5C14.687 18.5 18.5 14.687 18.5 10C18.5 5.313 14.687 1.5 10 1.5ZM10 20C4.486 20 0 15.514 0 10C0 4.486 4.486 0 10 0C15.514 0 20 4.486 20 10C20 15.514 15.514 20 10 20Z" fill="white"/>
<path fill-rule="evenodd" clip-rule="evenodd" d="M11.4424 14.2207C11.2514 14.2207 11.0594 14.1477 10.9134 14.0017L7.42642 10.5317C7.28542 10.3907 7.20642 10.1997 7.20642 9.99968C7.20642 9.80068 7.28542 9.60968 7.42642 9.46868L10.9134 5.99768C11.2064 5.70568 11.6804 5.70568 11.9734 5.99968C12.2664 6.29368 12.2644 6.76868 11.9714 7.06068L9.01942 9.99968L11.9714 12.9397C12.2644 13.2317 12.2664 13.7057 11.9734 13.9997C11.8274 14.1477 11.6344 14.2207 11.4424 14.2207Z" fill="white"/>
</svg>
