<svg width="15" height="22" viewBox="0 0 15 22" fill="none" xmlns="http://www.w3.org/2000/svg">
<path d="M11.264 1.375C11.6374 1.375 11.9956 1.51987 12.2596 1.77773C12.5237 2.03559 12.672 2.38533 12.672 2.75V19.25C12.672 19.6147 12.5237 19.9644 12.2596 20.2223C11.9956 20.4801 11.6374 20.625 11.264 20.625H2.816C2.44258 20.625 2.08445 20.4801 1.82039 20.2223C1.55634 19.9644 1.408 19.6147 1.408 19.25V2.75C1.408 2.38533 1.55634 2.03559 1.82039 1.77773C2.08445 1.51987 2.44258 1.375 2.816 1.375H11.264ZM2.816 0C2.06915 0 1.35289 0.289731 0.824787 0.805456C0.296685 1.32118 0 2.02065 0 2.75V19.25C0 19.9793 0.296685 20.6788 0.824787 21.1945C1.35289 21.7103 2.06915 22 2.816 22H11.264C12.0108 22 12.7271 21.7103 13.2552 21.1945C13.7833 20.6788 14.08 19.9793 14.08 19.25V2.75C14.08 2.02065 13.7833 1.32118 13.2552 0.805456C12.7271 0.289731 12.0108 0 11.264 0L2.816 0Z" fill="white"/>
<path d="M7.04081 19.1398C7.41424 19.1398 7.77237 18.9891 8.03642 18.7209C8.30047 18.4528 8.44881 18.089 8.44881 17.7098C8.44881 17.3305 8.30047 16.9668 8.03642 16.6986C7.77237 16.4304 7.41424 16.2798 7.04081 16.2798C6.66739 16.2798 6.30926 16.4304 6.04521 16.6986C5.78116 16.9668 5.63281 17.3305 5.63281 17.7098C5.63281 18.089 5.78116 18.4528 6.04521 18.7209C6.30926 18.9891 6.66739 19.1398 7.04081 19.1398Z" fill="white"/>
</svg>
